# xmcd
#
# Track frame offsets: 
#        150
#        19041
#        39601
#        55907
#        72499
#        90247
#        108962
#        123894
#        145269
#
# Disc length: 2192 seconds
#
# Revision: 3
# Processed by: cddbd v1.5.2PL0 Copyright (c) Steve Scherf et al.
# Submitted via: ExactAudioCopy v1.3
#
DISCID=72088e09
DTITLE=Various Artist - 2007 GZ AV Fair CD2
DYEAR=2007
DGENRE=Other
TTITLE0=薩頂頂 - 神香
TTITLE1=PHAROS - Only Love
TTITLE2=殷秀梅 - 瑪依拉
TTITLE3=竇鵬 - 金色的麥田
TTITLE4=李谷一 - 妹妹找哥淚花流
TTITLE5=朱哲琴 - 大海走了
TTITLE6=Cliff Richard&Helen Hobson - If Ever I Would Leave You
TTITLE7=Lucia Minetti - Smoke gets in your eyes
TTITLE8=The Turtle Creek Chorale - Nella Fantasia
EXTD=
EXTT0=
EXTT1=
EXTT2=
EXTT3=
EXTT4=
EXTT5=
EXTT6=
EXTT7=
EXTT8=
PLAYORDER=
